<?xml version="1.0" encoding="utf-8"?>
<!-- Generator: Adobe Illustrator 26.0.3, SVG Export Plug-In . SVG Version: 6.00 Build 0)  -->
<svg version="1.1" id="Capa_1" xmlns="http://www.w3.org/2000/svg" xmlns:xlink="http://www.w3.org/1999/xlink" x="0px" y="0px"
	 viewBox="0 0 800 500" style="enable-background:new 0 0 800 500;" xml:space="preserve">
<style type="text/css">
	.st0{fill:#1C006A;}
	.st1{fill:#00FFBC;}
</style>
<g>
	<path class="st0" d="M542.1,298.4c0-5.5-1.5-9.5-4.6-12.1s-7.3-3.9-12.6-3.9c-3.5,0-7.1,0.4-10.5,1.3c-3.2,0.8-6.2,2.1-8.9,4v92
		c-2.7,0.7-5.5,1.3-8.4,1.6c-3.9,0.5-7.9,0.8-11.8,0.8c-3.5,0-7-0.2-10.5-0.8c-2.8-0.4-5.5-1.5-7.8-3.2c-2.2-1.7-3.9-3.9-4.9-6.5
		c-1.3-3.4-1.9-7.1-1.7-10.8v-79.5c0-4.8,1-8.7,3-11.7c2.3-3.2,5.1-6,8.4-8.2c6-4.2,13.6-7.7,22.7-10.4c9.9-2.8,20.1-4.1,30.4-4
		c20,0,35.4,4.4,46.2,13.1c10.8,8.8,16.2,20.9,16.2,36.5v83c-2.7,0.7-5.5,1.3-8.3,1.6c-3.9,0.5-7.9,0.8-11.8,0.8
		c-3.5,0-7-0.2-10.5-0.8c-2.8-0.4-5.5-1.5-7.8-3.2c-2.2-1.7-3.9-3.9-4.9-6.5c-1.3-3.4-1.9-7.1-1.7-10.7V298.4z"/>
	<path class="st0" d="M368.6,247.2h0.1c8.1,0,16.2,1.5,23.8,4.4c7.4,2.9,14.2,7.3,19.9,12.9c5.9,6,10.6,13.1,13.6,21
		c3.3,8.4,5,18,5,29c0,11.3-1.7,21.2-5.1,29.6c-3.1,8-8,15.2-14.2,21c-6.4,5.8-14.1,10.2-22.4,12.7c-9.4,3-19.2,4.4-29.1,4.3
		c-11.5,0-21.2-1.4-29.2-4c-7.2-2.3-14.1-5.7-20.4-10c-7.7-5.5-11.5-12.5-11.5-21V182.4c2.7-0.7,5.5-1.3,8.4-1.7
		c3.9-0.6,7.8-0.9,11.8-0.9c3.5,0,6.9,0.2,10.3,0.8c2.8,0.4,5.4,1.5,7.7,3.1c2.1,1.6,3.8,3.9,4.7,6.4c1.2,3.4,1.7,7,1.6,10.6V252
		l-0.3,34.2v50.6c0,4.3,2.8,8.1,6.8,9.3h0.1c3.3,0.9,6.6,1.2,10,1.2c8,0,14.2-2.7,18.7-8.2c4.4-5.5,6.7-13.6,6.7-24.4
		c0-11-2.3-19.1-6.8-24.5c-4.5-5.4-7.6-7.3-15.9-11.3c-2-1-10.6-6-9.3-17.2C354.4,252.9,361.3,247.3,368.6,247.2z"/>
	<path class="st0" d="M686.4,247.2h0.2c8.1,0,16.2,1.5,23.8,4.4c7.4,2.9,14.2,7.3,19.8,12.9c6,6,10.6,13.1,13.6,21
		c3.3,8.4,5,18,5,29c0,11.3-1.7,21.2-5.1,29.6c-3.1,8-8,15.2-14.2,21c-6.5,5.8-14.1,10.2-22.4,12.7c-9.4,3-19.2,4.4-29.1,4.3
		c-11.5,0-21.2-1.4-29.2-4c-7.2-2.3-14.1-5.7-20.4-10c-7.7-5.4-11.5-12.4-11.5-20.9v-165c2.8-0.7,5.5-1.3,8.4-1.7
		c3.9-0.6,7.8-0.9,11.8-0.9c3.5,0,6.9,0.2,10.3,0.8c2.8,0.4,5.4,1.5,7.7,3.1c2.1,1.6,3.8,3.9,4.7,6.4c1.2,3.4,1.7,7,1.6,10.6V252
		l-0.2,34.2v50.6c0,4.3,2.8,8.1,6.8,9.3h0.1c3.3,0.9,6.6,1.2,10,1.2c8,0,14.2-2.7,18.7-8.2c4.4-5.5,6.7-13.6,6.7-24.4
		c0-11-2.3-19.1-6.8-24.5c-4.5-5.4-7.6-7.3-16-11.3c-2-1-10.6-6-9.3-17.2C672.2,252.9,679.1,247.3,686.4,247.2z"/>
	<path class="st1" d="M247.4,145.7c0-22.6-18.3-41-41-41c-18.2,0-34.3,12-39.4,29.5c-23.6-14.2-50.5-21.7-78-21.8l-20.7-0.1
		c-0.8,2.5-1.4,5.1-1.8,7.7c-0.6,3.9-1,7.8-1,11.8c0,3.5,0.2,6.9,0.7,10.4v0.1c1,6.3,5.4,10.9,15.7,11.1H82
		c7.2,0.2,17.7,0.2,26.2,1.8c26.5,4.7,50.2,19,66.7,40.2c11.2,14.1,18.6,30.8,21.7,48.6c1.5,8.5,1.4,18.9,1.6,26v0.2
		c0,10.1,4.7,14.5,11,15.6h0.1c3.5,0.5,7,0.8,10.5,0.8c4,0,8-0.3,11.9-0.9c2.6-0.4,5.2-1,7.8-1.7l0.1-20.5
		c0.2-27.6-7.4-54.8-21.8-78.4C235.2,179.8,247.3,163.9,247.4,145.7z"/>
	<path class="st0" d="M238.9,352.4L238.9,352.4c-1-6.3-5.4-11.1-15.7-11.2h-0.1c-7.2-0.2-17.6-0.2-26.2-1.8
		c-26.5-4.7-50.2-19-66.7-40.2c-11.2-14.1-18.6-30.8-21.7-48.6c-1.5-8.5-1.4-18.9-1.6-26c0-0.1,0-0.1,0-0.1c0-10.1-4.7-14.6-11-15.6
		h-0.1c-3.5-0.5-7-0.8-10.5-0.8c-4,0-8,0.3-11.9,0.9c-2.6,0.4-5.2,1-7.8,1.7l-0.1,20.5c-0.2,27.6,7.4,54.8,21.8,78.4
		c-21.7,6.3-34.3,29-28,50.8s29,34.3,50.8,28c13.5-3.9,24.1-14.5,28-28c23.6,14.2,50.5,21.7,78,21.8l20.7,0.1
		c0.8-2.5,1.4-5.1,1.8-7.7c0.6-3.9,1-7.8,1-11.8C239.7,359.3,239.4,355.8,238.9,352.4z"/>
</g>
</svg>
